<svg xmlns="http://www.w3.org/2000/svg" viewBox="0 0 910.83 192.47"><defs><style>.cls-1{fill:#00e2b7;}.cls-2{fill:#fff;}</style></defs><g id="Layer_2" data-name="Layer 2"><g id="Layer_1-2" data-name="Layer 1"><g id="Black"><path class="cls-1" d="M46.15,105.62H84.24v47.14q-15,6.36-33.71,6.36-24.45,0-37.49-13.82T0,106.19Q0,90.43,6.47,78.24A45.3,45.3,0,0,1,25,59.4q12-6.63,27.67-6.64A71.37,71.37,0,0,1,83,59l-2.89,6.5a65.65,65.65,0,0,0-27.85-6.22q-20.41,0-32.4,12.62t-12,34q0,23.32,11.38,35.09t33.43,11.77q14.26,0,24.24-4V112.41H46.15Z"/><path class="cls-2" d="M171.94,119.19q0,18.8-9.12,29.36t-25.16,10.57a32.6,32.6,0,0,1-17.81-4.88,31.18,31.18,0,0,1-11.8-14,51,51,0,0,1-4.1-21.06q0-18.8,9.12-29.29t25-10.5q15.82,0,24.84,10.64T171.94,119.19Zm-60.64,0q0,15.83,7,24.7t19.68,8.87q12.74,0,19.69-8.87t7-24.7q0-15.9-7-24.66T137.8,85.76q-12.72,0-19.61,8.73T111.3,119.19Z"/><path class="cls-1" d="M251.44,157.7H195V69.16a42.77,42.77,0,0,1,42.77-42.77h619V33H245A42.77,42.77,0,0,0,202.18,75.8v24.31h46.5v6.64h-46.5v44.31h49.26Z"/><path class="cls-2" d="M301.19,79.4a32,32,0,0,1,14.42,3q6.08,3,10.88,10.39h.42q-.42-8.91-.42-17.45V47.74h6.92v110h-4.59L327.05,146h-.56q-8.76,13.16-25.16,13.15-15.9,0-24.31-9.9t-8.41-28.83q0-19.92,8.34-30.46T301.19,79.4Zm0,6.36q-12.58,0-18.9,8.84T276,120.25q0,32.66,25.37,32.65,13,0,19.08-7.56t6.08-25v-1.2q0-17.81-6-25.62T301.19,85.76Z"/><path class="cls-2" d="M358.22,59.55q0-6.79,4.45-6.79a4,4,0,0,1,3.43,1.77,8.72,8.72,0,0,1,1.23,5,8.88,8.88,0,0,1-1.23,5,3.91,3.91,0,0,1-3.43,1.84Q358.22,66.4,358.22,59.55Zm8,98.15h-7V80.89h7Z"/><path class="cls-2" d="M445.49,157.7V107.88q0-11.58-4.87-16.85t-15.13-5.27q-13.77,0-20.17,7t-6.4,22.58v42.4h-7V80.89h5.93l1.35,10.53h.42q7.49-12,26.64-12,26.14,0,26.15,28.06V157.7Z"/><path class="cls-2" d="M509.73,79.4q16.11,0,24.28,10.14t8.16,29.65q0,19.16-8.59,29.54t-24.13,10.39a31.72,31.72,0,0,1-14.77-3.39,25.91,25.91,0,0,1-10.39-9.62h-.64l-2,11.59h-4.39v-110h7V75.38c0,4.14-.09,8-.28,11.44l-.21,6h.49a28,28,0,0,1,10.57-10.18A31.67,31.67,0,0,1,509.73,79.4Zm-.14,6.36q-13.57,0-19.43,7.78t-5.87,25.65v1.2q0,17.38,6.11,25t19.05,7.56q12.57,0,18.94-8.8t6.36-25Q534.75,85.77,509.59,85.76Z"/><path class="cls-2" d="M569.52,80.89v49.75q0,11.6,4.87,16.85t15.13,5.27q13.71,0,20.17-6.93t6.47-22.54V80.89h6.92V157.7h-5.93l-1.27-10.6h-.43q-7.49,12-26.64,12-26.22,0-26.22-28.06V80.89Z"/><path class="cls-2" d="M679.05,79.4a60.08,60.08,0,0,1,10.46,1l-1.34,6.72a41,41,0,0,0-10-1.21q-9.83,0-16.12,8.34T655.8,115.3v42.4h-7V80.89h5.93l.71,13.85h.49q4.74-8.47,10.11-11.91A23.7,23.7,0,0,1,679.05,79.4Z"/><path class="cls-2" d="M765.06,80.89v4.87l-15.9,1a27.14,27.14,0,0,1,6.36,17.39q0,11.08-7.39,18T728.31,129a43.45,43.45,0,0,1-7.35-.42,18.26,18.26,0,0,0-6.36,5.16,10.41,10.41,0,0,0-2.19,6.29,5.82,5.82,0,0,0,2.79,5.37q2.79,1.69,9.36,1.69H738q12.51,0,19.15,5.06t6.64,14.94q0,12.17-9.85,18.77t-28.1,6.6q-14.48,0-22.43-5.58a17.93,17.93,0,0,1-7.95-15.55,18.41,18.41,0,0,1,4.91-13.14q4.9-5.23,13.32-7.14a13.57,13.57,0,0,1-5.55-4.2,10,10,0,0,1-2.08-6.26q0-7.69,9.82-13.57a21.86,21.86,0,0,1-10.46-8.65,24.71,24.71,0,0,1-3.74-13.54q0-11.5,7.31-18.48t19.75-7q7.56,0,11.73,1.49Zm-62.19,89.82q0,15.82,23.53,15.83,30.24,0,30.25-19.3,0-6.92-4.74-10t-15.33-3.11H724Q702.87,154.1,702.87,170.71Zm5.86-65.87q0,8.91,5.41,13.82t14.45,4.91q9.61,0,14.74-4.87t5.12-14.14q0-9.82-5.27-14.73t-14.73-4.91q-9.18,0-14.45,5.26T708.73,104.84Z"/><path class="cls-2" d="M834.38,157.7V107.88q0-11.58-4.88-16.85t-15.12-5.27q-13.77,0-20.17,7t-6.4,22.58v42.4h-7v-110h7v35l-.35,9.82H788a25.85,25.85,0,0,1,10.88-10q6.58-3.11,16.33-3.11,26.15,0,26.15,28.06V157.7Z"/></g><path class="cls-1" d="M896.37,23.2h-16.5L858.75,0h-9.18L863,23.2H840.39L826,7.39h-7.82L832.22,29.8v0h0l-14.05,22.4H826l14.4-15.81H863l-13.36,23,9,.19L879.8,36.42h16.59c3.71,0,14.44-3,14.44-6.59S900.11,23.24,896.37,23.2Z"/></g></g></svg>