<?xml version="1.0" encoding="utf-8"?>
<!-- Generator: Adobe Illustrator 26.0.2, SVG Export Plug-In . SVG Version: 6.00 Build 0)  -->
<svg version="1.1" id="Layer_1" xmlns="http://www.w3.org/2000/svg" xmlns:xlink="http://www.w3.org/1999/xlink" x="0px" y="0px"
	 viewBox="0 0 903 192.7" style="enable-background:new 0 0 903 192.7;" xml:space="preserve">
<style type="text/css">
	.st0{fill:#00E2B7;}
</style>
<g id="Layer_2_00000021810411114671544060000013294338240607848116_">
	<g id="Layer_1-2">
		<g id="Black">
			<path class="st0" d="M46.2,105.8h38.1V153c-10,4.2-21.2,6.4-33.7,6.4c-16.3,0-28.8-4.6-37.5-13.8S0,123.3,0,106.4
				c0-10.5,2.2-19.8,6.5-27.9c4.2-8,10.6-14.5,18.5-18.8c8-4.4,17.2-6.6,27.7-6.6C63.1,52.9,73.5,55,83,59.3l-2.9,6.5
				c-8.7-4.1-18.2-6.2-27.8-6.2c-13.6,0-24.4,4.2-32.4,12.6s-12,19.7-12,34c0,15.5,3.8,27.2,11.4,35.1S38,152.9,52.7,153
				c9.5,0,17.6-1.3,24.2-4v-36.4H46.2V105.8z"/>
			<path d="M171.9,119.4c0,12.5-3,22.3-9.1,29.4s-14.5,10.6-25.2,10.6c-6.3,0.1-12.5-1.6-17.8-4.9c-5.2-3.4-9.4-8.3-11.8-14
				c-2.8-6.6-4.2-13.8-4.1-21.1c0-12.5,3-22.3,9.1-29.3s14.4-10.5,25-10.5c10.5,0,18.8,3.5,24.8,10.6
				C168.9,97.3,171.9,107,171.9,119.4z M111.3,119.4c0,10.6,2.3,18.8,7,24.7c4.7,5.9,11.2,8.9,19.6,8.9c8.5,0,15.1-3,19.7-8.9
				s7-14.1,7-24.7s-2.3-18.8-7-24.7S146.4,86,137.8,86c-8.5,0-15,2.9-19.6,8.7S111.3,108.8,111.3,119.4z"/>
			<path class="st0" d="M251.4,157.9H195V39.6c0-7.2,5.8-13,13-13h648.8v6.6H215.2c-7.2,0-13,5.8-13,13v54.1h46.5v6.6h-46.5v44.3
				h49.3L251.4,157.9z"/>
			<path d="M301.2,79.6c5-0.1,9.9,0.9,14.4,3c4.1,2,7.7,5.5,10.9,10.4h0.4c-0.3-5.9-0.4-11.7-0.4-17.4V47.9h6.9v110h-4.6l-1.8-11.7
				h-0.6c-5.8,8.8-14.2,13.1-25.2,13.1c-10.6,0-18.7-3.3-24.3-9.9c-5.6-6.6-8.4-16.2-8.4-28.8c0-13.3,2.8-23.4,8.3-30.4
				S290.6,79.6,301.2,79.6z M301.2,86c-8.4,0-14.7,2.9-18.9,8.8c-4.2,5.9-6.3,14.4-6.3,25.7c0,21.8,8.5,32.7,25.4,32.6
				c8.7,0,15-2.5,19.1-7.6c4.1-5,6.1-13.4,6.1-25v-1.2c0-11.9-2-20.4-6-25.6S310.1,85.9,301.2,86L301.2,86z"/>
			<path d="M358.2,59.7c0-4.5,1.5-6.8,4.5-6.8c1.4,0,2.7,0.6,3.4,1.8c0.9,1.5,1.3,3.2,1.2,5c0.1,1.8-0.3,3.5-1.2,5
				c-0.7,1.2-2,1.9-3.4,1.8C359.7,66.6,358.2,64.3,358.2,59.7z M366.2,157.9h-7V81.1h7V157.9z"/>
			<path d="M445.5,157.9v-49.8c0-7.7-1.6-13.4-4.9-16.9s-8.3-5.2-15.1-5.2c-9.2,0-15.9,2.3-20.2,7c-4.3,4.7-6.4,12.2-6.4,22.6V158
				h-7V81.1h5.9l1.4,10.5h0.4c5-8,13.9-12,26.6-12c17.4,0,26.1,9.3,26.1,28.1v50.2H445.5z"/>
			<path d="M509.7,79.6c10.7,0,18.8,3.4,24.3,10.1c5.4,6.8,8.2,16.6,8.2,29.6c0,12.8-2.9,22.6-8.6,29.5
				c-5.7,6.9-13.8,10.4-24.1,10.4c-5.1,0.1-10.2-1.1-14.8-3.4c-4.3-2.2-7.9-5.5-10.4-9.6h-0.6l-2,11.6h-4.4v-110h7v27.7
				c0,4.1-0.1,8-0.3,11.4l-0.2,6h0.5c2.6-4.3,6.2-7.8,10.6-10.2C499.5,80.6,504.6,79.4,509.7,79.6z M509.6,86
				c-9.1,0-15.5,2.6-19.4,7.7c-3.9,5.2-5.8,13.7-5.9,25.7v1.2c0,11.6,2,19.9,6.1,25s10.4,7.6,19,7.6c8.4,0,14.7-2.9,18.9-8.8
				c4.2-5.9,6.4-14.2,6.4-25C534.8,97.1,526.4,86,509.6,86z"/>
			<path d="M569.5,81.1v49.8c0,7.7,1.6,13.4,4.9,16.9s8.3,5.3,15.1,5.3c9.1,0,15.9-2.3,20.2-6.9s6.5-12.1,6.5-22.5V81.1h6.9v76.8
				h-5.9l-1.3-10.6h-0.4c-5,8-13.9,12-26.6,12c-17.5,0-26.2-9.3-26.2-28.1V81.1H569.5z"/>
			<path d="M679,79.6c3.5,0,7,0.4,10.5,1l-1.3,6.7c-3.3-0.8-6.6-1.2-10-1.2c-6.6,0-11.9,2.8-16.1,8.3c-4.2,5.6-6.3,12.6-6.2,21.1
				v42.4h-7V81.1h5.9l0.7,13.8h0.5c3.2-5.7,6.5-9.6,10.1-11.9C670,80.6,674.5,79.5,679,79.6z"/>
			<path d="M765.1,81.1V86l-15.9,1c4.1,4.9,6.3,11,6.4,17.4c0,7.4-2.5,13.4-7.4,18s-11.5,6.9-19.8,6.9c-2.5,0.1-4.9-0.1-7.3-0.4
				c-2.5,1.2-4.7,3-6.4,5.2c-1.4,1.8-2.2,4-2.2,6.3c-0.1,2.2,0.9,4.2,2.8,5.4c1.9,1.1,5,1.7,9.4,1.7H738c8.3,0,14.7,1.7,19.2,5
				c4.4,3.3,6.6,8.3,6.6,15c0,8.1-3.3,14.4-9.8,18.8c-6.6,4.4-15.9,6.6-28.1,6.6c-9.7,0-17.1-1.9-22.4-5.6c-5.2-3.5-8.2-9.3-8-15.5
				c-0.2-4.9,1.6-9.6,4.9-13.1c3.3-3.5,7.7-5.9,13.3-7.1c-2.2-0.9-4.1-2.3-5.5-4.2c-1.4-1.8-2.1-4-2.1-6.2c0-5.1,3.3-9.7,9.8-13.6
				c-4.3-1.7-8-4.7-10.5-8.7c-2.6-4.1-3.9-8.8-3.8-13.6c0-7.7,2.4-13.8,7.3-18.5s11.5-7,19.8-7c5,0,9,0.5,11.7,1.5L765.1,81.1z
				 M702.9,170.9c0,10.5,7.8,15.8,23.5,15.8c20.2,0,30.2-6.4,30.2-19.3c0-4.6-1.6-8-4.7-10c-3.2-2-8.3-3.1-15.3-3.1H724
				C709.9,154.3,702.9,159.8,702.9,170.9z M708.7,105c0,5.9,1.8,10.5,5.4,13.8c3.6,3.3,8.4,4.9,14.5,4.9c6.4,0,11.3-1.6,14.7-4.9
				c3.4-3.2,5.1-8,5.1-14.1c0-6.5-1.8-11.4-5.3-14.7s-8.4-4.9-14.7-4.9c-6.1,0-10.9,1.8-14.5,5.3C710.5,93.8,708.7,98.7,708.7,105z"
				/>
			<path d="M834.4,157.9v-49.8c0-7.7-1.6-13.4-4.9-16.9s-8.3-5.2-15.1-5.2c-9.2,0-15.9,2.3-20.2,7s-6.4,12.2-6.4,22.6V158h-7V48h7
				v35l-0.3,9.8h0.5c2.6-4.3,6.4-7.8,10.9-10c4.4-2.1,9.8-3.1,16.3-3.1c17.4,0,26.2,9.3,26.2,28v50.2L834.4,157.9L834.4,157.9z"/>
		</g>
		<path class="st0" d="M888.6,23.2h-16.5L851,0h-9.2l13.4,23.2h-22.6L818.2,7.4h-7.8l14,22.4l0,0l0,0l-14,22.4h7.8l14.4-15.8h22.6
			l-13.4,23l9,0.2L872,36.4h16.6c3.7,0,14.4-3,14.4-6.6S892.3,23.2,888.6,23.2z"/>
	</g>
</g>
<g id="Layer_2_00000031904266693516817650000010239651389286097594_">
	<g id="Layer_1-2_00000155836013644880980220000014540441614439462333_">
		<g id="Black_00000147211765372091119020000005629042401274863007_">
			<path class="st0" d="M1306.9,11.8h8.3v10.3c-2.2,0.9-4.6,1.4-7.4,1.4c-3.6,0-6.3-1-8.2-3c-1.9-2-2.9-4.9-2.9-8.5
				c0-2.3,0.5-4.3,1.4-6.1c0.9-1.7,2.3-3.2,4-4.1c1.7-1,3.8-1.4,6-1.4c2.3,0,4.5,0.4,6.6,1.3l-0.6,1.4c-1.9-0.9-4-1.3-6.1-1.3
				c-3,0-5.3,0.9-7.1,2.7c-1.7,1.8-2.6,4.3-2.6,7.4c0,3.4,0.8,5.9,2.5,7.6c1.7,1.7,4.1,2.5,7.3,2.5c2.1,0,3.8-0.3,5.3-0.9v-7.9h-6.7
				V11.8z"/>
			<path d="M1334.3,14.8c0,2.7-0.7,4.9-2,6.4c-1.3,1.5-3.2,2.3-5.5,2.3c-1.4,0-2.7-0.3-3.9-1.1c-1.1-0.7-2.1-1.8-2.6-3
				c-0.6-1.4-0.9-3-0.9-4.6c0-2.7,0.7-4.9,2-6.4s3.1-2.3,5.5-2.3c2.3,0,4.1,0.8,5.4,2.3C1333.6,10,1334.3,12.1,1334.3,14.8z
				 M1321.1,14.8c0,2.3,0.5,4.1,1.5,5.4c1,1.3,2.4,1.9,4.3,1.9c1.9,0,3.3-0.7,4.3-1.9c1-1.3,1.5-3.1,1.5-5.4s-0.5-4.1-1.5-5.4
				c-1-1.3-2.4-1.9-4.3-1.9c-1.9,0-3.3,0.6-4.3,1.9S1321.1,12.5,1321.1,14.8z"/>
			<path class="st0" d="M1351.6,23.2h-12.3V-2.6c0-1.6,1.3-2.8,2.8-2.8h141.5V-4h-140c-1.6,0-2.8,1.3-2.8,2.8v11.8h10.1v1.4h-10.1
				v9.6h10.8L1351.6,23.2z"/>
			<path d="M1362.5,6.1c1.1,0,2.2,0.2,3.1,0.7c0.9,0.4,1.7,1.2,2.4,2.3h0.1c-0.1-1.3-0.1-2.5-0.1-3.8v-6h1.5v24h-1l-0.4-2.5h-0.1
				c-1.3,1.9-3.1,2.9-5.5,2.9c-2.3,0-4.1-0.7-5.3-2.2c-1.2-1.4-1.8-3.5-1.8-6.3c0-2.9,0.6-5.1,1.8-6.6
				C1358.4,6.9,1360.2,6.1,1362.5,6.1z M1362.5,7.5c-1.8,0-3.2,0.6-4.1,1.9s-1.4,3.1-1.4,5.6c0,4.7,1.9,7.1,5.5,7.1
				c1.9,0,3.3-0.5,4.2-1.7c0.9-1.1,1.3-2.9,1.3-5.4v-0.3c0-2.6-0.4-4.4-1.3-5.6C1365.9,8.1,1364.5,7.5,1362.5,7.5L1362.5,7.5z"/>
			<path d="M1374.9,1.8c0-1,0.3-1.5,1-1.5c0.3,0,0.6,0.1,0.7,0.4c0.2,0.3,0.3,0.7,0.3,1.1c0,0.4-0.1,0.8-0.3,1.1
				c-0.2,0.3-0.4,0.4-0.7,0.4C1375.3,3.3,1374.9,2.8,1374.9,1.8z M1376.7,23.2h-1.5V6.5h1.5V23.2z"/>
			<path d="M1394,23.2V12.3c0-1.7-0.3-2.9-1.1-3.7c-0.7-0.8-1.8-1.1-3.3-1.1c-2,0-3.5,0.5-4.4,1.5s-1.4,2.7-1.4,4.9v9.2h-1.5V6.5
				h1.3l0.3,2.3h0.1c1.1-1.7,3-2.6,5.8-2.6c3.8,0,5.7,2,5.7,6.1v10.9H1394z"/>
			<path d="M1408,6.1c2.3,0,4.1,0.7,5.3,2.2c1.2,1.5,1.8,3.6,1.8,6.4c0,2.8-0.6,4.9-1.9,6.4s-3,2.3-5.3,2.3c-1.1,0-2.2-0.2-3.2-0.7
				c-0.9-0.5-1.7-1.2-2.3-2.1h-0.1l-0.4,2.5h-1v-24h1.5v6c0,0.9,0,1.7-0.1,2.5l0,1.3h0.1c0.6-0.9,1.4-1.7,2.3-2.2
				C1405.8,6.3,1406.9,6.1,1408,6.1z M1408,7.5c-2,0-3.4,0.6-4.2,1.7c-0.9,1.1-1.3,3-1.3,5.6v0.3c0,2.5,0.4,4.3,1.3,5.4
				c0.9,1.1,2.3,1.7,4.1,1.7c1.8,0,3.2-0.6,4.1-1.9c0.9-1.3,1.4-3.1,1.4-5.4C1413.5,9.9,1411.6,7.5,1408,7.5z"/>
			<path d="M1421,6.5v10.8c0,1.7,0.3,2.9,1.1,3.7s1.8,1.2,3.3,1.2c2,0,3.5-0.5,4.4-1.5c0.9-1,1.4-2.6,1.4-4.9V6.5h1.5v16.7h-1.3
				l-0.3-2.3h-0.1c-1.1,1.7-3,2.6-5.8,2.6c-3.8,0-5.7-2-5.7-6.1V6.5H1421z"/>
			<path d="M1444.9,6.1c0.8,0,1.5,0.1,2.3,0.2l-0.3,1.5c-0.7-0.2-1.4-0.3-2.2-0.3c-1.4,0-2.6,0.6-3.5,1.8c-0.9,1.2-1.4,2.7-1.4,4.6
				v9.2h-1.5V6.5h1.3l0.2,3h0.1c0.7-1.2,1.4-2.1,2.2-2.6C1443,6.3,1444,6.1,1444.9,6.1z"/>
			<path d="M1463.7,6.5v1.1l-3.5,0.2c0.9,1.1,1.4,2.4,1.4,3.8c0,1.6-0.5,2.9-1.6,3.9s-2.5,1.5-4.3,1.5c-0.5,0-1.1,0-1.6-0.1
				c-0.5,0.3-1,0.7-1.4,1.1c-0.3,0.4-0.5,0.9-0.5,1.4c0,0.5,0.2,0.9,0.6,1.2c0.4,0.2,1.1,0.4,2.1,0.4h2.9c1.8,0,3.2,0.4,4.2,1.1
				c1,0.7,1.4,1.8,1.4,3.3c0,1.8-0.7,3.1-2.1,4.1c-1.4,1-3.5,1.4-6.1,1.4c-2.1,0-3.7-0.4-4.9-1.2c-1.1-0.8-1.8-2-1.7-3.4
				c0-1.1,0.3-2.1,1.1-2.9s1.7-1.3,2.9-1.5c-0.5-0.2-0.9-0.5-1.2-0.9c-0.3-0.4-0.5-0.9-0.5-1.3c0-1.1,0.7-2.1,2.1-3
				c-0.9-0.4-1.7-1-2.3-1.9c-0.6-0.9-0.9-1.9-0.8-3c0-1.7,0.5-3,1.6-4s2.5-1.5,4.3-1.5c1.1,0,2,0.1,2.6,0.3L1463.7,6.5z M1450.1,26
				c0,2.3,1.7,3.4,5.1,3.4c4.4,0,6.6-1.4,6.6-4.2c0-1-0.3-1.7-1-2.2c-0.7-0.4-1.8-0.7-3.3-0.7h-2.7
				C1451.7,22.4,1450.1,23.6,1450.1,26z M1451.4,11.7c0,1.3,0.4,2.3,1.2,3c0.8,0.7,1.8,1.1,3.2,1.1c1.4,0,2.5-0.3,3.2-1.1
				c0.7-0.7,1.1-1.7,1.1-3.1c0-1.4-0.4-2.5-1.2-3.2c-0.8-0.7-1.8-1.1-3.2-1.1c-1.3,0-2.4,0.4-3.2,1.2
				C1451.8,9.2,1451.4,10.3,1451.4,11.7z"/>
			<path d="M1478.8,23.2V12.3c0-1.7-0.3-2.9-1.1-3.7s-1.8-1.1-3.3-1.1c-2,0-3.5,0.5-4.4,1.5c-0.9,1-1.4,2.7-1.4,4.9v9.2h-1.5v-24
				h1.5v7.6l-0.1,2.1h0.1c0.6-0.9,1.4-1.7,2.4-2.2c1-0.5,2.1-0.7,3.6-0.7c3.8,0,5.7,2,5.7,6.1v10.9L1478.8,23.2L1478.8,23.2z"/>
		</g>
		<path class="st0" d="M1490.7-6.2h-3.6l-4.6-5.1h-2l2.9,5.1h-4.9l-3.1-3.4h-1.7l3.1,4.9l0,0l0,0l-3.1,4.9h1.7l3.1-3.4h4.9l-2.9,5
			l2,0l4.6-5.1h3.6c0.8,0,3.1-0.7,3.1-1.4S1491.5-6.2,1490.7-6.2z"/>
	</g>
</g>
</svg>
