<svg xmlns="http://www.w3.org/2000/svg" viewBox="0 0 903.04 192.67"><defs><style>.cls-1{fill:#00e2b7;}.cls-2{fill:#fff;}</style></defs><g id="Layer_2" data-name="Layer 2"><g id="Layer_1-2" data-name="Layer 1"><g id="Black"><path class="cls-1" d="M46.15,105.81H84.24V153q-15,6.36-33.71,6.36-24.45,0-37.49-13.82T0,106.38Q0,90.62,6.47,78.43A45.28,45.28,0,0,1,25,59.6Q37,53,52.65,53A71.37,71.37,0,0,1,83,59.17l-2.89,6.5a65.64,65.64,0,0,0-27.85-6.21q-20.41,0-32.4,12.61t-12,34q0,23.31,11.38,35.08T52.65,153q14.26,0,24.24-4V112.6H46.15Z"/><path class="cls-2" d="M171.94,119.38q0,18.81-9.12,29.37t-25.16,10.56a32.51,32.51,0,0,1-17.81-4.88,31.18,31.18,0,0,1-11.8-14,50.92,50.92,0,0,1-4.1-21.06q0-18.8,9.12-29.29t25-10.49q15.82,0,24.84,10.63T171.94,119.38Zm-60.64,0q0,15.84,7,24.7T137.94,153q12.74,0,19.69-8.87t7-24.7q0-15.9-7-24.66T137.8,86q-12.72,0-19.61,8.72T111.3,119.38Z"/><path class="cls-1" d="M251.44,157.9H195V39.6a13,13,0,0,1,13-13H856.75v6.64H215.2a13,13,0,0,0-13,13V100.3h46.5v6.64h-46.5v44.31h49.26Z"/><path class="cls-2" d="M301.19,79.6a31.88,31.88,0,0,1,14.42,3q6.08,3,10.88,10.38h.42q-.42-8.89-.42-17.45V47.94h6.92v110h-4.59l-1.77-11.73h-.56q-8.76,13.14-25.16,13.14-15.9,0-24.31-9.89t-8.41-28.84q0-19.92,8.34-30.45T301.19,79.6Zm0,6.36q-12.58,0-18.9,8.83T276,120.44q0,32.66,25.37,32.65,13,0,19.08-7.56t6.08-25v-1.2q0-17.8-6-25.61T301.19,86Z"/><path class="cls-2" d="M358.22,59.74c0-4.52,1.48-6.79,4.45-6.79a4,4,0,0,1,3.43,1.77,8.72,8.72,0,0,1,1.23,5,8.94,8.94,0,0,1-1.23,5,3.93,3.93,0,0,1-3.43,1.83Q358.22,66.59,358.22,59.74Zm8,98.16h-7V81.08h7Z"/><path class="cls-2" d="M445.49,157.9V108.08q0-11.6-4.87-16.86T425.49,86q-13.77,0-20.17,7t-6.4,22.58v42.4h-7V81.08h5.93l1.35,10.53h.42q7.49-12,26.64-12,26.14,0,26.15,28.05V157.9Z"/><path class="cls-2" d="M509.73,79.6q16.11,0,24.28,10.14t8.16,29.64q0,19.16-8.59,29.54t-24.13,10.39a31.72,31.72,0,0,1-14.77-3.39,25.88,25.88,0,0,1-10.39-9.61h-.64l-2,11.59h-4.39v-110h7V75.57q0,6.21-.28,11.45l-.21,6h.49a28,28,0,0,1,10.57-10.17A31.55,31.55,0,0,1,509.73,79.6ZM509.59,86Q496,86,490.16,93.73t-5.87,25.65v1.2q0,17.38,6.11,25t19.05,7.56q12.57,0,18.94-8.8t6.36-25Q534.75,86,509.59,86Z"/><path class="cls-2" d="M569.52,81.08v49.75q0,11.6,4.87,16.86T589.52,153q13.71,0,20.17-6.93t6.47-22.54V81.08h6.92V157.9h-5.93l-1.27-10.6h-.43q-7.49,12-26.64,12-26.22,0-26.22-28.05V81.08Z"/><path class="cls-2" d="M679.05,79.6a60.08,60.08,0,0,1,10.46,1l-1.34,6.71a41,41,0,0,0-10-1.2q-9.83,0-16.12,8.34T655.8,115.5v42.4h-7V81.08h5.93l.71,13.85h.49q4.74-8.48,10.11-11.91A23.69,23.69,0,0,1,679.05,79.6Z"/><path class="cls-2" d="M765.06,81.08V86l-15.9,1a27.12,27.12,0,0,1,6.36,17.38q0,11.1-7.39,18t-19.82,6.9a43.16,43.16,0,0,1-7.35-.43,18.26,18.26,0,0,0-6.36,5.16,10.43,10.43,0,0,0-2.19,6.29,5.82,5.82,0,0,0,2.79,5.37q2.79,1.69,9.36,1.7H738q12.51,0,19.15,5t6.64,15q0,12.15-9.85,18.76t-28.1,6.61q-14.48,0-22.43-5.59a17.93,17.93,0,0,1-7.95-15.54,18.44,18.44,0,0,1,4.91-13.15q4.9-5.22,13.32-7.14a13.49,13.49,0,0,1-5.55-4.2,10,10,0,0,1-2.08-6.25q0-7.71,9.82-13.57a21.94,21.94,0,0,1-10.46-8.66A24.68,24.68,0,0,1,701.67,105q0-11.52,7.31-18.48t19.75-7q7.56,0,11.73,1.48ZM702.87,170.9q0,15.82,23.53,15.83,30.24,0,30.25-19.29,0-6.93-4.74-10t-15.33-3.11H724Q702.87,154.29,702.87,170.9ZM708.73,105q0,8.89,5.41,13.81t14.45,4.91q9.61,0,14.74-4.87t5.12-14.14q0-9.81-5.27-14.73t-14.73-4.91q-9.18,0-14.45,5.26T708.73,105Z"/><path class="cls-2" d="M834.38,157.9V108.08q0-11.6-4.88-16.86T814.38,86q-13.77,0-20.17,7t-6.4,22.58v42.4h-7v-110h7v35l-.35,9.82H788a25.76,25.76,0,0,1,10.88-10q6.58-3.12,16.33-3.11,26.15,0,26.15,28.05V157.9Z"/></g><path class="cls-1" d="M888.58,23.2H872.07L851,0h-9.18l13.42,23.2h-22.6L818.2,7.39h-7.83l14,22.41v0h0l-14,22.4h7.82L832.6,36.43h22.6l-13.37,23,9,.19L872,36.42h16.6c3.71,0,14.44-3,14.44-6.59S892.31,23.24,888.58,23.2Z"/></g></g></svg>